<?xml version="1.0" encoding="iso-8859-1"?>
<!--Generator: Adobe Illustrator 19.0.0, SVG Export Plug-In . SVG Version: 6.00 Build 0)-->
<svg version="1.1" id="Layer_1" xmlns="http://www.w3.org/2000/svg" xmlns:xlink="http://www.w3.org/1999/xlink" x="0px" y="0px" viewBox="0 0 512 512" style="enable-background:new 0 0 512 512" xml:space="preserve">
    <path style="fill:#efe7e4" d="M472.815,58.715H418.47c-4.161,0-7.534,3.363-7.534,7.514v24.085c0,8.153-6.651,14.787-14.827,14.787
	s-14.826-6.634-14.826-14.787V66.228c0-4.15-3.373-7.514-7.534-7.514H107.118c-4.161,0-7.534,3.363-7.534,7.514v24.085
	c0,8.153-6.651,14.787-14.826,14.787s-14.826-6.634-14.826-14.787V66.228c0-4.15-3.373-7.514-7.534-7.514H7.534
	C3.373,58.715,0,62.078,0,66.228v363.154c0,4.15,3.373,7.513,7.534,7.513h252.333c2.582,0,4.985-1.319,6.366-3.495
	s1.548-4.905,0.443-7.234c-7.678-16.173-11.571-33.51-11.571-51.531c0-66.493,54.242-120.591,120.914-120.591
	c34.92,0,68.133,15.063,91.122,41.328c2.065,2.361,5.382,3.194,8.321,2.094c2.94-1.1,4.888-3.904,4.888-7.035V66.228
	C480.349,62.078,476.976,58.715,472.815,58.715z"/>
    <g>
        <path style="fill:#465a65" d="M131.288,190.608h-48.54c-4.161,0-7.534,3.363-7.534,7.514v48.409c0,4.15,3.373,7.514,7.534,7.514
		h48.54c4.161,0,7.534-3.364,7.534-7.514v-48.409C138.821,193.971,135.448,190.608,131.288,190.608z"/>
        <path style="fill:#465a65" d="M220.232,190.608h-48.54c-4.161,0-7.534,3.363-7.534,7.514v48.409c0,4.15,3.373,7.514,7.534,7.514
		h48.54c4.161,0,7.534-3.364,7.534-7.514v-48.409C227.766,193.971,224.393,190.608,220.232,190.608z"/>
        <path style="fill:#465a65" d="M309.176,190.608h-48.54c-4.161,0-7.534,3.363-7.534,7.514v48.409c0,4.15,3.373,7.514,7.534,7.514
		h48.54c4.161,0,7.534-3.364,7.534-7.514v-48.409C316.71,193.971,313.337,190.608,309.176,190.608z"/>
        <path style="fill:#465a65" d="M398.12,190.608h-48.54c-4.161,0-7.534,3.363-7.534,7.514v48.409c0,4.15,3.373,7.514,7.534,7.514
		h48.54c4.161,0,7.534-3.364,7.534-7.514v-48.409C405.654,193.971,402.281,190.608,398.12,190.608z"/>
        <path style="fill:#465a65" d="M131.288,294.535h-48.54c-4.161,0-7.534,3.363-7.534,7.513v48.41c0,4.15,3.373,7.513,7.534,7.513
		h48.54c4.161,0,7.534-3.363,7.534-7.513v-48.41C138.821,297.899,135.448,294.535,131.288,294.535z"/>
        <path style="fill:#465a65" d="M220.232,294.535h-48.54c-4.161,0-7.534,3.363-7.534,7.513v48.41c0,4.15,3.373,7.513,7.534,7.513
		h48.54c4.161,0,7.534-3.363,7.534-7.513v-48.41C227.766,297.899,224.393,294.535,220.232,294.535z"/>
    </g>
    <rect y="112.61" style="fill:#d8d1d0" width="480.35" height="59.985"/>
    <path style="fill:#f2464f" d="M473.074,58.715H418.47c-4.161,0-7.534,3.363-7.534,7.514v24.085c0,8.153-6.651,14.787-14.827,14.787
	s-14.826-6.634-14.826-14.787V66.228c0-4.15-3.373-7.514-7.534-7.514H107.118c-4.161,0-7.534,3.363-7.534,7.514v24.085
	c0,8.153-6.651,14.787-14.826,14.787s-14.826-6.634-14.826-14.787V66.228c0-4.15-3.373-7.514-7.534-7.514H7.793
	c-4.161,0-7.534,3.363-7.534,7.514v81.326c0,4.15,3.373,7.514,7.534,7.514h465.281c4.161,0,7.534-3.363,7.534-7.514V66.228
	C480.608,62.078,477.235,58.715,473.074,58.715z"/>
    <path style="fill:#d3333c" d="M0.259,127.518v20.036c0,4.15,3.373,7.514,7.534,7.514h465.281c4.161,0,7.534-3.363,7.534-7.514
	v-20.036C480.608,127.518,0.259,127.518,0.259,127.518z"/>
    <path style="fill:#f7cb4f" d="M84.757,1.748c-16.483,0-29.894,13.375-29.894,29.814v58.751c0,16.44,13.41,29.814,29.894,29.814
	c16.483,0,29.894-13.375,29.894-29.814V31.562C114.651,15.123,101.241,1.748,84.757,1.748z"/>
    <path style="fill:#f4b008" d="M84.757,1.748c-5.033,0-9.777,1.252-13.942,3.453c9.477,5.006,15.951,14.942,15.951,26.361v58.751
	c0,11.42-6.474,21.355-15.951,26.362c4.166,2.201,8.909,3.453,13.942,3.453c16.483,0,29.894-13.375,29.894-29.814V31.562
	C114.651,15.123,101.241,1.748,84.757,1.748z"/>
    <path style="fill:#f7cb4f" d="M396.11,1.748c-16.483,0-29.893,13.375-29.893,29.814v58.751c0,16.44,13.411,29.814,29.894,29.814
	s29.893-13.375,29.893-29.814V31.562C426.004,15.123,412.593,1.748,396.11,1.748z"/>
    <path style="fill:#f4b008" d="M396.11,1.748c-5.031,0-9.772,1.251-13.936,3.45c9.48,5.005,15.958,14.942,15.958,26.365v58.751
	c0,11.422-6.477,21.36-15.957,26.365c4.164,2.199,8.906,3.45,13.936,3.45c16.483,0,29.893-13.375,29.893-29.814V31.562
	C426.004,15.123,412.593,1.748,396.11,1.748z"/>
    <path style="fill:#f2464f" d="M376.018,239.017c-74.98,0-135.981,60.838-135.981,135.618c0,74.779,61.001,135.617,135.981,135.617
	c74.981,0,135.982-60.838,135.982-135.617C512,299.855,450.999,239.017,376.018,239.017z"/>
    <path style="fill:#d3333c" d="M376.018,239.017c-4.826,0-9.592,0.256-14.289,0.748c68.289,7.145,121.693,64.903,121.693,134.87
	c0,69.966-53.403,127.724-121.693,134.869c4.697,0.491,9.463,0.748,14.289,0.748c74.981,0,135.982-60.838,135.982-135.617
	C512,299.855,450.999,239.017,376.018,239.017z"/>
    <path style="fill:#efe7e4" d="M376.018,270.584c-57.528,0-104.33,46.678-104.33,104.051s46.803,104.051,104.33,104.051
	c57.528,0,104.331-46.678,104.331-104.051S433.546,270.584,376.018,270.584z"/>
    <path style="fill:#d8d1d0" d="M376.018,270.584c-4.682,0-9.291,0.315-13.812,0.914c51.023,6.76,90.519,50.434,90.519,103.138
	s-39.496,96.377-90.519,103.138c4.52,0.599,9.13,0.914,13.812,0.914c57.528,0,104.331-46.678,104.331-104.051
	C480.349,317.261,433.546,270.584,376.018,270.584z"/>
    <g>
        <path style="fill:#546f7a" d="M375.772,367.091c-4.161,0-7.534-3.363-7.534-7.513v-57.529c0-4.15,3.373-7.513,7.534-7.513
		s7.534,3.363,7.534,7.513v57.529C383.305,363.728,379.932,367.091,375.772,367.091z"/>
        <path style="fill:#546f7a" d="M338.187,424.681c-1.822,0-3.648-0.654-5.095-1.98c-3.065-2.808-3.266-7.56-0.451-10.617
		l28.121-30.529c2.814-3.056,7.581-3.257,10.644-0.45c3.064,2.808,3.266,7.561,0.451,10.617l-28.121,30.529
		C342.251,423.863,340.222,424.681,338.187,424.681z"/>
    </g>
    <path style="fill:#f7cb4f" d="M375.772,352.064c-12.545,0-22.752,10.18-22.752,22.691c0,12.512,10.207,22.691,22.752,22.691
	s22.752-10.179,22.752-22.691C398.523,362.244,388.317,352.064,375.772,352.064z"/>
    <g/>
    <g/>
    <g/>
    <g/>
    <g/>
    <g/>
    <g/>
    <g/>
    <g/>
    <g/>
    <g/>
    <g/>
    <g/>
    <g/>
    <g/>
</svg>
